<svg class="icon" viewBox="0 0 1024 1024" xmlns="http://www.w3.org/2000/svg">
    <path
      fill="#FFC700"
        d="M567.487 554.089c-231.718-55.609-473 52.246-515.586 208.295 11.032 42.186 36.724 85.913 80.257 129.446 209.606 209.606 423.715 6.007 448.048-259.438-2.282-26.02-6.457-52.222-12.719-78.303zM523.287 311.97c17.185 44.564 32.137 93.024 44.443 144.3 85.075 20.413 162.614 48 226.949 81.253a226.258 226.258 0 0 0 22.051-59.602c-9.09-40.656-29.43-79.298-61.07-110.938-62.866-62.853-153.354-81.143-232.373-55.013z"/>
    <path
      fill="#3F2704"
        d="M310.125 1006.724a215.86 215.86 0 0 1-39.94-3.738c-54.614-10.267-107.771-40.936-158.003-91.168-50.232-50.232-80.9-103.389-91.168-158.002-9.551-50.827-.704-102.503 25.571-149.447 17.04-30.437 40.875-58.484 70.998-83.558a801.042 801.042 0 0 1-16.384-31.858C54.68 393.125 35.03 302.382 44.364 226.506c4.576-37.125 16.057-70.67 34.14-99.724 19.211-30.85 45.9-56.665 79.31-76.714 30.778-18.459 62.102-29.26 93.098-32.088 30.244-2.767 60.269 2.015 89.262 14.175 106.593 44.747 197.567 190.358 250.87 400.753 210.407 53.302 356.018 144.276 400.752 250.87 12.173 28.993 16.943 59.03 14.176 89.262-2.828 30.996-13.63 62.32-32.089 93.097-20.049 33.411-45.863 60.1-76.713 79.31-29.043 18.084-62.6 29.577-99.724 34.14-12.294 1.517-24.977 2.27-38.011 2.27-67.405 0-144.13-20.11-224.437-59.104a793.254 793.254 0 0 1-31.857-16.384c-25.086 30.122-53.121 53.958-83.559 70.997-34.625 19.455-71.871 29.358-109.457 29.358zM146.697 570.412c-21.262 18.872-38.508 39.625-50.802 61.567-20.013 35.73-26.518 73.219-19.345 111.4 8.119 43.217 33.557 86.446 75.585 128.474 42.04 42.04 85.257 67.466 128.474 75.585 38.181 7.173 75.658.668 111.4-19.345 21.942-12.294 42.707-29.528 61.567-50.803-60.33-38.059-118.984-84.82-170.527-136.363-51.53-51.53-98.292-110.185-136.352-170.515zm389.648 289.67a743.53 743.53 0 0 0 23.375 11.88c85.998 41.75 165.83 59.59 230.857 51.58 59.48-7.318 104.857-36.41 134.882-86.447 27.49-45.815 32.162-88.801 14.26-131.424C904.233 621.13 780.164 543.7 604.066 494.839c13.92 90.27 6.032 184.411-23.071 269.487-11.882 34.746-26.846 66.81-44.65 95.755zM192.221 536.684c36.19 58.012 81.107 114.603 130.793 164.301 49.686 49.686 106.277 94.615 164.3 130.793 15.887-25.583 29.516-54.467 40.22-85.743 28.715-83.934 34.443-177.748 16.506-266.076-88.328-17.937-182.142-12.209-266.076 16.506-31.276 10.692-60.16 24.333-85.743 40.22zM267.417 73.65c-26.166 0-52.817 8.277-80.512 24.892-50.038 30.025-79.129 75.402-86.447 134.882-8.01 65.027 9.83 144.86 51.58 230.857a730.915 730.915 0 0 0 11.88 23.375c28.946-17.804 61.01-32.768 95.756-44.65 85.076-29.103 179.205-36.991 269.487-23.07C480.3 243.848 402.87 119.778 318.329 84.28c-16.857-7.088-33.775-10.632-50.912-10.632z"/>
    <path
      fill="#3F2704"
        d="M794.654 565.788c-4.369 0-8.81-1.02-12.961-3.168-62.126-32.124-136.34-58.666-220.565-78.885a28.239 28.239 0 0 1-20.875-20.887c-20.219-84.226-46.749-158.427-78.886-220.565-7.075-13.678-1.893-30.51 11.663-37.829 47.441-25.632 103.11-35.668 156.765-28.241 55.5 7.682 105.828 32.72 145.538 72.442s64.76 90.039 72.442 145.538c7.415 53.655-2.61 109.324-28.241 156.765-5.11 9.442-14.83 14.83-24.88 14.83zM591.068 432.932c70.39 17.84 134.094 40.11 189.982 66.386 11.468-30.839 15.291-64.578 10.752-97.37-5.97-43.205-25.486-82.393-56.421-113.329-30.936-30.935-70.124-50.45-113.33-56.421-32.791-4.54-66.53-.716-97.369 10.752 26.288 55.888 48.546 119.592 66.386 189.982zm143.548-279.378c-8.447 0-16.894-3.216-23.326-9.648-6.238-6.238-9.66-14.515-9.66-23.326 0-8.81 3.434-17.1 9.66-23.326 6.226-6.226 14.515-9.66 23.326-9.66s17.1 3.434 23.338 9.66c12.853 12.853 12.865 33.788 0 46.652l-.012.012c-6.432 6.42-14.88 9.636-23.326 9.636zM891.2 310.137c-8.447 0-16.894-3.216-23.326-9.648-6.226-6.226-9.66-14.515-9.66-23.326s3.434-17.1 9.66-23.326c12.864-12.865 33.787-12.853 46.652 0 12.864 12.864 12.864 33.8 0 46.664-6.433 6.42-14.88 9.636-23.326 9.636z"/>
</svg>
